<?xml version="1.0" encoding="us-ascii" standalone="no"?><svg xmlns="http://www.w3.org/2000/svg" xmlns:xlink="http://www.w3.org/1999/xlink" contentStyleType="text/css" height="435px" preserveAspectRatio="none" style="width:664px;height:435px;background:#FFFFFF;" version="1.1" viewBox="0 0 664 435" width="664px" zoomAndPan="magnify"><defs/><g><rect fill="#FFFFFF" height="307.6191" style="stroke:#181818;stroke-width:1.0;" width="10" x="162" y="71.9121"/><rect fill="#FFFFFF" height="42.291" style="stroke:#181818;stroke-width:1.0;" width="10" x="167" y="236.3672"/><rect fill="#FFFFFF" height="31.291" style="stroke:#181818;stroke-width:1.0;" width="10" x="449" y="103.2031"/><rect fill="#FFFFFF" height="31.291" style="stroke:#181818;stroke-width:1.0;" width="10" x="523.5" y="165.7852"/><rect fill="#FFFFFF" height="31.291" style="stroke:#181818;stroke-width:1.0;" width="10" x="610" y="316.9492"/><line style="stroke:#181818;stroke-width:0.5;stroke-dasharray:5.0,5.0;" x1="166.5" x2="166.5" y1="38.6211" y2="397.5313"/><line style="stroke:#181818;stroke-width:0.5;stroke-dasharray:5.0,5.0;" x1="453.5" x2="453.5" y1="38.6211" y2="397.5313"/><line style="stroke:#181818;stroke-width:0.5;stroke-dasharray:5.0,5.0;" x1="528.5" x2="528.5" y1="38.6211" y2="397.5313"/><line style="stroke:#181818;stroke-width:0.5;stroke-dasharray:5.0,5.0;" x1="614.5" x2="614.5" y1="38.6211" y2="397.5313"/><rect fill="#E2E2F0" height="32.6211" rx="2.5" ry="2.5" style="stroke:#181818;stroke-width:0.5;" width="87" x="123.5" y="5"/><text fill="#000000" font-family="sans-serif" font-size="14" lengthAdjust="spacing" textLength="73" x="130.5" y="27.1074">l1:Lendings</text><rect fill="#E2E2F0" height="32.6211" rx="2.5" ry="2.5" style="stroke:#181818;stroke-width:0.5;" width="87" x="123.5" y="396.5313"/><text fill="#000000" font-family="sans-serif" font-size="14" lengthAdjust="spacing" textLength="73" x="130.5" y="418.6387">l1:Lendings</text><rect fill="#E2E2F0" height="32.6211" rx="2.5" ry="2.5" style="stroke:#181818;stroke-width:0.5;" width="63" x="422.5" y="5"/><text fill="#000000" font-family="sans-serif" font-size="14" lengthAdjust="spacing" textLength="49" x="429.5" y="27.1074">u1:User</text><rect fill="#E2E2F0" height="32.6211" rx="2.5" ry="2.5" style="stroke:#181818;stroke-width:0.5;" width="63" x="422.5" y="396.5313"/><text fill="#000000" font-family="sans-serif" font-size="14" lengthAdjust="spacing" textLength="49" x="429.5" y="418.6387">u1:User</text><rect fill="#E2E2F0" height="32.6211" rx="2.5" ry="2.5" style="stroke:#181818;stroke-width:0.5;" width="66" x="495.5" y="5"/><text fill="#000000" font-family="sans-serif" font-size="14" lengthAdjust="spacing" textLength="52" x="502.5" y="27.1074">b1:Book</text><rect fill="#E2E2F0" height="32.6211" rx="2.5" ry="2.5" style="stroke:#181818;stroke-width:0.5;" width="66" x="495.5" y="396.5313"/><text fill="#000000" font-family="sans-serif" font-size="14" lengthAdjust="spacing" textLength="52" x="502.5" y="418.6387">b1:Book</text><rect fill="#E2E2F0" height="32.6211" rx="2.5" ry="2.5" style="stroke:#181818;stroke-width:0.5;" width="87" x="571.5" y="5"/><text fill="#000000" font-family="sans-serif" font-size="14" lengthAdjust="spacing" textLength="73" x="578.5" y="27.1074">l2:Lendings</text><rect fill="#E2E2F0" height="32.6211" rx="2.5" ry="2.5" style="stroke:#181818;stroke-width:0.5;" width="87" x="571.5" y="396.5313"/><text fill="#000000" font-family="sans-serif" font-size="14" lengthAdjust="spacing" textLength="73" x="578.5" y="418.6387">l2:Lendings</text><rect fill="#FFFFFF" height="307.6191" style="stroke:#181818;stroke-width:1.0;" width="10" x="162" y="71.9121"/><rect fill="#FFFFFF" height="42.291" style="stroke:#181818;stroke-width:1.0;" width="10" x="167" y="236.3672"/><rect fill="#FFFFFF" height="31.291" style="stroke:#181818;stroke-width:1.0;" width="10" x="449" y="103.2031"/><rect fill="#FFFFFF" height="31.291" style="stroke:#181818;stroke-width:1.0;" width="10" x="523.5" y="165.7852"/><rect fill="#FFFFFF" height="31.291" style="stroke:#181818;stroke-width:1.0;" width="10" x="610" y="316.9492"/><polygon fill="#181818" points="150,67.9121,160,71.9121,150,75.9121,154,71.9121" style="stroke:#181818;stroke-width:1.0;"/><line style="stroke:#181818;stroke-width:1.0;" x1="0" x2="156" y1="71.9121" y2="71.9121"/><text fill="#000000" font-family="sans-serif" font-size="13" font-weight="bold" lengthAdjust="spacing" textLength="7" x="7" y="66.6494">1</text><text fill="#000000" font-family="sans-serif" font-size="13" lengthAdjust="spacing" textLength="132" x="18" y="66.6494">Htpp Post(/api/lendigs)</text><polygon fill="#181818" points="437,99.2031,447,103.2031,437,107.2031,441,103.2031" style="stroke:#181818;stroke-width:1.0;"/><line style="stroke:#181818;stroke-width:1.0;" x1="172" x2="443" y1="103.2031" y2="103.2031"/><text fill="#000000" font-family="sans-serif" font-size="13" font-weight="bold" lengthAdjust="spacing" textLength="7" x="179" y="97.9404">2</text><text fill="#000000" font-family="sans-serif" font-size="13" lengthAdjust="spacing" textLength="247" x="190" y="97.9404">GET /users/{userId} (Verify user existence)</text><polygon fill="#181818" points="183,130.4941,173,134.4941,183,138.4941,179,134.4941" style="stroke:#181818;stroke-width:1.0;"/><line style="stroke:#181818;stroke-width:1.0;stroke-dasharray:2.0,2.0;" x1="177" x2="453" y1="134.4941" y2="134.4941"/><text fill="#000000" font-family="sans-serif" font-size="13" font-weight="bold" lengthAdjust="spacing" textLength="7" x="189" y="129.2314">3</text><text fill="#000000" font-family="sans-serif" font-size="13" lengthAdjust="spacing" textLength="125" x="200" y="129.2314">200 OK (User details)</text><polygon fill="#181818" points="511.5,161.7852,521.5,165.7852,511.5,169.7852,515.5,165.7852" style="stroke:#181818;stroke-width:1.0;"/><line style="stroke:#181818;stroke-width:1.0;" x1="172" x2="517.5" y1="165.7852" y2="165.7852"/><text fill="#000000" font-family="sans-serif" font-size="13" font-weight="bold" lengthAdjust="spacing" textLength="7" x="179" y="160.5225">4</text><text fill="#000000" font-family="sans-serif" font-size="13" lengthAdjust="spacing" textLength="256" x="190" y="160.5225">GET /books/{bookId} (Verify book existence)</text><polygon fill="#181818" points="183,193.0762,173,197.0762,183,201.0762,179,197.0762" style="stroke:#181818;stroke-width:1.0;"/><line style="stroke:#181818;stroke-width:1.0;stroke-dasharray:2.0,2.0;" x1="177" x2="527.5" y1="197.0762" y2="197.0762"/><text fill="#000000" font-family="sans-serif" font-size="13" font-weight="bold" lengthAdjust="spacing" textLength="7" x="189" y="191.8135">5</text><text fill="#000000" font-family="sans-serif" font-size="13" lengthAdjust="spacing" textLength="128" x="200" y="191.8135">200 OK (Book details)</text><line style="stroke:#181818;stroke-width:1.0;" x1="172" x2="219" y1="223.3672" y2="223.3672"/><line style="stroke:#181818;stroke-width:1.0;" x1="219" x2="219" y1="223.3672" y2="236.3672"/><line style="stroke:#181818;stroke-width:1.0;" x1="178" x2="219" y1="236.3672" y2="236.3672"/><polygon fill="#181818" points="188,232.3672,178,236.3672,188,240.3672,184,236.3672" style="stroke:#181818;stroke-width:1.0;"/><text fill="#000000" font-family="sans-serif" font-size="13" font-weight="bold" lengthAdjust="spacing" textLength="7" x="184" y="218.1045">6</text><text fill="#000000" font-family="sans-serif" font-size="13" lengthAdjust="spacing" textLength="92" x="195" y="218.1045">save Lendingsl1</text><line style="stroke:#181818;stroke-width:1.0;stroke-dasharray:2.0,2.0;" x1="177" x2="219" y1="277.6582" y2="277.6582"/><line style="stroke:#181818;stroke-width:1.0;stroke-dasharray:2.0,2.0;" x1="219" x2="219" y1="277.6582" y2="290.6582"/><line style="stroke:#181818;stroke-width:1.0;stroke-dasharray:2.0,2.0;" x1="172" x2="219" y1="290.6582" y2="290.6582"/><polygon fill="#181818" points="182,286.6582,172,290.6582,182,294.6582,178,290.6582" style="stroke:#181818;stroke-width:1.0;"/><text fill="#000000" font-family="sans-serif" font-size="13" font-weight="bold" lengthAdjust="spacing" textLength="7" x="184" y="272.3955">7</text><text fill="#000000" font-family="sans-serif" font-size="13" lengthAdjust="spacing" textLength="99" x="195" y="272.3955">saved Lendingsl1</text><polygon fill="#181818" points="598,312.9492,608,316.9492,598,320.9492,602,316.9492" style="stroke:#181818;stroke-width:1.0;"/><line style="stroke:#181818;stroke-width:1.0;" x1="172" x2="604" y1="316.9492" y2="316.9492"/><text fill="#000000" font-family="sans-serif" font-size="13" font-weight="bold" lengthAdjust="spacing" textLength="7" x="179" y="311.6865">8</text><text fill="#000000" font-family="sans-serif" font-size="13" lengthAdjust="spacing" textLength="161" x="190" y="311.6865">Htpp Post (/internal/lendigs)</text><polygon fill="#181818" points="183,344.2402,173,348.2402,183,352.2402,179,348.2402" style="stroke:#181818;stroke-width:1.0;"/><line style="stroke:#181818;stroke-width:1.0;stroke-dasharray:2.0,2.0;" x1="177" x2="614" y1="348.2402" y2="348.2402"/><text fill="#000000" font-family="sans-serif" font-size="13" font-weight="bold" lengthAdjust="spacing" textLength="7" x="189" y="342.9775">9</text><text fill="#000000" font-family="sans-serif" font-size="13" lengthAdjust="spacing" textLength="44" x="200" y="342.9775">200 OK</text><polygon fill="#181818" points="11,375.5313,1,379.5313,11,383.5313,7,379.5313" style="stroke:#181818;stroke-width:1.0;"/><line style="stroke:#181818;stroke-width:1.0;stroke-dasharray:2.0,2.0;" x1="5" x2="166" y1="379.5313" y2="379.5313"/><text fill="#000000" font-family="sans-serif" font-size="13" font-weight="bold" lengthAdjust="spacing" textLength="14" x="17" y="374.2686">10</text><text fill="#000000" font-family="sans-serif" font-size="13" lengthAdjust="spacing" textLength="21" x="35" y="374.2686">201</text><!--SRC=[TP5DJyGW48Rl_8h9NkmUAYr7OZoO63MQw46zqvQjH0h8nqPZ_EyoZHgwRhdCJDvtU9ZXv2L65pYbJWiJqwHFUplH8D-IDBsi1oL6BoP2H8fMz57jHPHWpLoRD7NIatoSy57rokKhOADRVYVDeCmODY02_1QwNVfIov-2zBC7awNQjVp2sjTPnUI0mLOO39y3zNb11GxNqJbui25ML3X5DMfZs9B2b5lm4HokBX-1ffm6-edXPlY2wbbwjVi0h46-gn1nErk27L0lQ1nOqy3zBLIpECWebFw7meb-K5rECmf3YSAwH677AceM_r07hCKcWjZByaTAwp7lK9hNBcR5Xg6YoaJfZT17zinMHiX_TbRNIpnhCf5y0m00]--></g></svg>