<?xml version="1.0" encoding="us-ascii" standalone="no"?><svg xmlns="http://www.w3.org/2000/svg" xmlns:xlink="http://www.w3.org/1999/xlink" contentStyleType="text/css" height="349px" preserveAspectRatio="none" style="width:409px;height:349px;background:#FFFFFF;" version="1.1" viewBox="0 0 409 349" width="409px" zoomAndPan="magnify"><defs/><g><text fill="#000000" font-family="sans-serif" font-size="14" font-weight="bold" lengthAdjust="spacing" textLength="229" x="89" y="30.1074">I want to update an author&#8217;s data</text><rect fill="#FFFFFF" height="182.4551" style="stroke:#181818;stroke-width:1.0;" width="10" x="164" y="111.5332"/><rect fill="#FFFFFF" height="42.291" style="stroke:#181818;stroke-width:1.0;" width="10" x="169" y="150.8242"/><rect fill="#FFFFFF" height="31.291" style="stroke:#181818;stroke-width:1.0;" width="10" x="360" y="231.4063"/><line style="stroke:#181818;stroke-width:0.5;stroke-dasharray:5.0,5.0;" x1="169" x2="169" y1="78.2422" y2="311.9883"/><line style="stroke:#181818;stroke-width:0.5;stroke-dasharray:5.0,5.0;" x1="365" x2="365" y1="78.2422" y2="311.9883"/><rect fill="#E2E2F0" height="32.6211" rx="2.5" ry="2.5" style="stroke:#181818;stroke-width:0.5;" width="76" x="131" y="44.6211"/><text fill="#000000" font-family="sans-serif" font-size="14" lengthAdjust="spacing" textLength="62" x="138" y="66.7285">a1:Author</text><rect fill="#E2E2F0" height="32.6211" rx="2.5" ry="2.5" style="stroke:#181818;stroke-width:0.5;" width="76" x="131" y="310.9883"/><text fill="#000000" font-family="sans-serif" font-size="14" lengthAdjust="spacing" textLength="62" x="138" y="333.0957">a1:Author</text><rect fill="#E2E2F0" height="32.6211" rx="2.5" ry="2.5" style="stroke:#181818;stroke-width:0.5;" width="76" x="327" y="44.6211"/><text fill="#000000" font-family="sans-serif" font-size="14" lengthAdjust="spacing" textLength="62" x="334" y="66.7285">a2:Author</text><rect fill="#E2E2F0" height="32.6211" rx="2.5" ry="2.5" style="stroke:#181818;stroke-width:0.5;" width="76" x="327" y="310.9883"/><text fill="#000000" font-family="sans-serif" font-size="14" lengthAdjust="spacing" textLength="62" x="334" y="333.0957">a2:Author</text><rect fill="#FFFFFF" height="182.4551" style="stroke:#181818;stroke-width:1.0;" width="10" x="164" y="111.5332"/><rect fill="#FFFFFF" height="42.291" style="stroke:#181818;stroke-width:1.0;" width="10" x="169" y="150.8242"/><rect fill="#FFFFFF" height="31.291" style="stroke:#181818;stroke-width:1.0;" width="10" x="360" y="231.4063"/><polygon fill="#181818" points="152,107.5332,162,111.5332,152,115.5332,156,111.5332" style="stroke:#181818;stroke-width:1.0;"/><line style="stroke:#181818;stroke-width:1.0;" x1="0" x2="158" y1="111.5332" y2="111.5332"/><text fill="#000000" font-family="sans-serif" font-size="13" font-weight="bold" lengthAdjust="spacing" textLength="7" x="7" y="106.2705">1</text><text fill="#000000" font-family="sans-serif" font-size="13" lengthAdjust="spacing" textLength="134" x="18" y="106.2705">Htpp Patch(/api/author)</text><line style="stroke:#181818;stroke-width:1.0;" x1="174" x2="221" y1="137.8242" y2="137.8242"/><line style="stroke:#181818;stroke-width:1.0;" x1="221" x2="221" y1="137.8242" y2="150.8242"/><line style="stroke:#181818;stroke-width:1.0;" x1="180" x2="221" y1="150.8242" y2="150.8242"/><polygon fill="#181818" points="190,146.8242,180,150.8242,190,154.8242,186,150.8242" style="stroke:#181818;stroke-width:1.0;"/><text fill="#000000" font-family="sans-serif" font-size="13" font-weight="bold" lengthAdjust="spacing" textLength="7" x="186" y="132.5615">2</text><text fill="#000000" font-family="sans-serif" font-size="13" lengthAdjust="spacing" textLength="78" x="197" y="132.5615">save Authorl1</text><line style="stroke:#181818;stroke-width:1.0;stroke-dasharray:2.0,2.0;" x1="179" x2="221" y1="192.1152" y2="192.1152"/><line style="stroke:#181818;stroke-width:1.0;stroke-dasharray:2.0,2.0;" x1="221" x2="221" y1="192.1152" y2="205.1152"/><line style="stroke:#181818;stroke-width:1.0;stroke-dasharray:2.0,2.0;" x1="174" x2="221" y1="205.1152" y2="205.1152"/><polygon fill="#181818" points="184,201.1152,174,205.1152,184,209.1152,180,205.1152" style="stroke:#181818;stroke-width:1.0;"/><text fill="#000000" font-family="sans-serif" font-size="13" font-weight="bold" lengthAdjust="spacing" textLength="7" x="186" y="186.8525">3</text><text fill="#000000" font-family="sans-serif" font-size="13" lengthAdjust="spacing" textLength="85" x="197" y="186.8525">saved Authorl1</text><polygon fill="#181818" points="348,227.4063,358,231.4063,348,235.4063,352,231.4063" style="stroke:#181818;stroke-width:1.0;"/><line style="stroke:#181818;stroke-width:1.0;" x1="174" x2="354" y1="231.4063" y2="231.4063"/><text fill="#000000" font-family="sans-serif" font-size="13" font-weight="bold" lengthAdjust="spacing" textLength="7" x="181" y="226.1436">4</text><text fill="#000000" font-family="sans-serif" font-size="13" lengthAdjust="spacing" textLength="156" x="192" y="226.1436">Htpp Post (/internal/author)</text><polygon fill="#181818" points="185,258.6973,175,262.6973,185,266.6973,181,262.6973" style="stroke:#181818;stroke-width:1.0;"/><line style="stroke:#181818;stroke-width:1.0;stroke-dasharray:2.0,2.0;" x1="179" x2="364" y1="262.6973" y2="262.6973"/><text fill="#000000" font-family="sans-serif" font-size="13" font-weight="bold" lengthAdjust="spacing" textLength="7" x="191" y="257.4346">5</text><text fill="#000000" font-family="sans-serif" font-size="13" lengthAdjust="spacing" textLength="44" x="202" y="257.4346">200 OK</text><polygon fill="#181818" points="11,289.9883,1,293.9883,11,297.9883,7,293.9883" style="stroke:#181818;stroke-width:1.0;"/><line style="stroke:#181818;stroke-width:1.0;stroke-dasharray:2.0,2.0;" x1="5" x2="168" y1="293.9883" y2="293.9883"/><text fill="#000000" font-family="sans-serif" font-size="13" font-weight="bold" lengthAdjust="spacing" textLength="7" x="17" y="288.7256">6</text><text fill="#000000" font-family="sans-serif" font-size="13" lengthAdjust="spacing" textLength="21" x="28" y="288.7256">200</text><!--SRC=[PSuzRiCm30NWNQSWiZGPN2KUZI10jXGTcYK7O6MY5Y1BgaIbQw-Hw-KafUFymUL6uiDxVEcOOswqZWuzbzwzcj3hJD-5lA6gjVYLi5SA2mSqR8_81C5VTb_wJqfAiML7y0O_aW0SeCHsKEX1L1VI-VUKGKweLCJ4rjWuo1ckckq5p00p738bjvg8-f-ebGnKcwk71dOS8-oHJJVN6AqUInV2hkGPPpmIZ9bITWDJqJx8DAI-5ORCCDVMCoMFxjuwegV81khb4ZxUvUjrLJrwv2el_W40]--></g></svg>