<?xml version="1.0" encoding="us-ascii" standalone="no"?><svg xmlns="http://www.w3.org/2000/svg" xmlns:xlink="http://www.w3.org/1999/xlink" contentStyleType="text/css" height="563px" preserveAspectRatio="none" style="width:662px;height:563px;background:#FFFFFF;" version="1.1" viewBox="0 0 662 563" width="662px" zoomAndPan="magnify"><defs/><g><text fill="#000000" font-family="sans-serif" font-size="14" font-weight="bold" lengthAdjust="spacing" textLength="229" x="218.5" y="30.1074">I want to update an author&#8217;s data</text><rect fill="#FFFFFF" height="396.2012" style="stroke:#181818;stroke-width:1.0;" width="10" x="164" y="111.5332"/><rect fill="#FFFFFF" height="119.873" style="stroke:#181818;stroke-width:1.0;" width="10" x="294" y="142.8242"/><rect fill="#FFFFFF" height="42.291" style="stroke:#181818;stroke-width:1.0;" width="10" x="299" y="182.1152"/><rect fill="#FFFFFF" height="182.4551" style="stroke:#181818;stroke-width:1.0;" width="10" x="419" y="293.9883"/><rect fill="#FFFFFF" height="119.873" style="stroke:#181818;stroke-width:1.0;" width="10" x="537" y="325.2793"/><rect fill="#FFFFFF" height="42.291" style="stroke:#181818;stroke-width:1.0;" width="10" x="542" y="364.5703"/><line style="stroke:#181818;stroke-width:0.5;stroke-dasharray:5.0,5.0;" x1="169" x2="169" y1="78.2422" y2="525.7344"/><line style="stroke:#181818;stroke-width:0.5;stroke-dasharray:5.0,5.0;" x1="298.5" x2="298.5" y1="78.2422" y2="525.7344"/><line style="stroke:#181818;stroke-width:0.5;stroke-dasharray:5.0,5.0;" x1="424" x2="424" y1="78.2422" y2="525.7344"/><line style="stroke:#181818;stroke-width:0.5;stroke-dasharray:5.0,5.0;" x1="541.5" x2="541.5" y1="78.2422" y2="525.7344"/><rect fill="#E2E2F0" height="32.6211" rx="2.5" ry="2.5" style="stroke:#181818;stroke-width:0.5;" width="94" x="122" y="44.6211"/><text fill="#000000" font-family="sans-serif" font-size="14" lengthAdjust="spacing" textLength="80" x="129" y="66.7285">a1:AuthorBE</text><rect fill="#E2E2F0" height="32.6211" rx="2.5" ry="2.5" style="stroke:#181818;stroke-width:0.5;" width="94" x="122" y="524.7344"/><text fill="#000000" font-family="sans-serif" font-size="14" lengthAdjust="spacing" textLength="80" x="129" y="546.8418">a1:AuthorBE</text><rect fill="#E2E2F0" height="32.6211" rx="2.5" ry="2.5" style="stroke:#181818;stroke-width:0.5;" width="95" x="251.5" y="44.6211"/><text fill="#000000" font-family="sans-serif" font-size="14" lengthAdjust="spacing" textLength="81" x="258.5" y="66.7285">a1:AuthorDB</text><rect fill="#E2E2F0" height="32.6211" rx="2.5" ry="2.5" style="stroke:#181818;stroke-width:0.5;" width="95" x="251.5" y="524.7344"/><text fill="#000000" font-family="sans-serif" font-size="14" lengthAdjust="spacing" textLength="81" x="258.5" y="546.8418">a1:AuthorDB</text><rect fill="#E2E2F0" height="32.6211" rx="2.5" ry="2.5" style="stroke:#181818;stroke-width:0.5;" width="94" x="377" y="44.6211"/><text fill="#000000" font-family="sans-serif" font-size="14" lengthAdjust="spacing" textLength="80" x="384" y="66.7285">a2:AuthorBE</text><rect fill="#E2E2F0" height="32.6211" rx="2.5" ry="2.5" style="stroke:#181818;stroke-width:0.5;" width="94" x="377" y="524.7344"/><text fill="#000000" font-family="sans-serif" font-size="14" lengthAdjust="spacing" textLength="80" x="384" y="546.8418">a2:AuthorBE</text><rect fill="#E2E2F0" height="32.6211" rx="2.5" ry="2.5" style="stroke:#181818;stroke-width:0.5;" width="95" x="494.5" y="44.6211"/><text fill="#000000" font-family="sans-serif" font-size="14" lengthAdjust="spacing" textLength="81" x="501.5" y="66.7285">a2:AuthorDB</text><rect fill="#E2E2F0" height="32.6211" rx="2.5" ry="2.5" style="stroke:#181818;stroke-width:0.5;" width="95" x="494.5" y="524.7344"/><text fill="#000000" font-family="sans-serif" font-size="14" lengthAdjust="spacing" textLength="81" x="501.5" y="546.8418">a2:AuthorDB</text><rect fill="#FFFFFF" height="396.2012" style="stroke:#181818;stroke-width:1.0;" width="10" x="164" y="111.5332"/><rect fill="#FFFFFF" height="119.873" style="stroke:#181818;stroke-width:1.0;" width="10" x="294" y="142.8242"/><rect fill="#FFFFFF" height="42.291" style="stroke:#181818;stroke-width:1.0;" width="10" x="299" y="182.1152"/><rect fill="#FFFFFF" height="182.4551" style="stroke:#181818;stroke-width:1.0;" width="10" x="419" y="293.9883"/><rect fill="#FFFFFF" height="119.873" style="stroke:#181818;stroke-width:1.0;" width="10" x="537" y="325.2793"/><rect fill="#FFFFFF" height="42.291" style="stroke:#181818;stroke-width:1.0;" width="10" x="542" y="364.5703"/><polygon fill="#181818" points="152,107.5332,162,111.5332,152,115.5332,156,111.5332" style="stroke:#181818;stroke-width:1.0;"/><line style="stroke:#181818;stroke-width:1.0;" x1="0" x2="158" y1="111.5332" y2="111.5332"/><text fill="#000000" font-family="sans-serif" font-size="13" font-weight="bold" lengthAdjust="spacing" textLength="7" x="7" y="106.2705">1</text><text fill="#000000" font-family="sans-serif" font-size="13" lengthAdjust="spacing" textLength="134" x="18" y="106.2705">Htpp Patch(/api/author)</text><polygon fill="#181818" points="282,138.8242,292,142.8242,282,146.8242,286,142.8242" style="stroke:#181818;stroke-width:1.0;"/><line style="stroke:#181818;stroke-width:1.0;" x1="174" x2="288" y1="142.8242" y2="142.8242"/><text fill="#000000" font-family="sans-serif" font-size="13" font-weight="bold" lengthAdjust="spacing" textLength="7" x="181" y="137.5615">2</text><text fill="#000000" font-family="sans-serif" font-size="13" lengthAdjust="spacing" textLength="78" x="192" y="137.5615">save Authorl1</text><line style="stroke:#181818;stroke-width:1.0;" x1="304" x2="351" y1="169.1152" y2="169.1152"/><line style="stroke:#181818;stroke-width:1.0;" x1="351" x2="351" y1="169.1152" y2="182.1152"/><line style="stroke:#181818;stroke-width:1.0;" x1="310" x2="351" y1="182.1152" y2="182.1152"/><polygon fill="#181818" points="320,178.1152,310,182.1152,320,186.1152,316,182.1152" style="stroke:#181818;stroke-width:1.0;"/><text fill="#000000" font-family="sans-serif" font-size="13" font-weight="bold" lengthAdjust="spacing" textLength="7" x="316" y="163.8525">3</text><text fill="#000000" font-family="sans-serif" font-size="13" lengthAdjust="spacing" textLength="85" x="327" y="163.8525">saved Authorl1</text><line style="stroke:#181818;stroke-width:1.0;stroke-dasharray:2.0,2.0;" x1="309" x2="351" y1="223.4063" y2="223.4063"/><line style="stroke:#181818;stroke-width:1.0;stroke-dasharray:2.0,2.0;" x1="351" x2="351" y1="223.4063" y2="236.4063"/><line style="stroke:#181818;stroke-width:1.0;stroke-dasharray:2.0,2.0;" x1="304" x2="351" y1="236.4063" y2="236.4063"/><polygon fill="#181818" points="314,232.4063,304,236.4063,314,240.4063,310,236.4063" style="stroke:#181818;stroke-width:1.0;"/><text fill="#000000" font-family="sans-serif" font-size="13" font-weight="bold" lengthAdjust="spacing" textLength="7" x="316" y="218.1436">4</text><text fill="#000000" font-family="sans-serif" font-size="13" lengthAdjust="spacing" textLength="85" x="327" y="218.1436">saved Authorl1</text><polygon fill="#181818" points="185,258.6973,175,262.6973,185,266.6973,181,262.6973" style="stroke:#181818;stroke-width:1.0;"/><line style="stroke:#181818;stroke-width:1.0;stroke-dasharray:2.0,2.0;" x1="179" x2="298" y1="262.6973" y2="262.6973"/><text fill="#000000" font-family="sans-serif" font-size="13" font-weight="bold" lengthAdjust="spacing" textLength="7" x="191" y="257.4346">5</text><text fill="#000000" font-family="sans-serif" font-size="13" lengthAdjust="spacing" textLength="85" x="202" y="257.4346">saved Authorl1</text><polygon fill="#181818" points="407,289.9883,417,293.9883,407,297.9883,411,293.9883" style="stroke:#181818;stroke-width:1.0;"/><line style="stroke:#181818;stroke-width:1.0;" x1="174" x2="413" y1="293.9883" y2="293.9883"/><text fill="#000000" font-family="sans-serif" font-size="13" font-weight="bold" lengthAdjust="spacing" textLength="7" x="181" y="288.7256">6</text><text fill="#000000" font-family="sans-serif" font-size="13" lengthAdjust="spacing" textLength="156" x="192" y="288.7256">Htpp Post (/internal/author)</text><polygon fill="#181818" points="525,321.2793,535,325.2793,525,329.2793,529,325.2793" style="stroke:#181818;stroke-width:1.0;"/><line style="stroke:#181818;stroke-width:1.0;" x1="429" x2="531" y1="325.2793" y2="325.2793"/><text fill="#000000" font-family="sans-serif" font-size="13" font-weight="bold" lengthAdjust="spacing" textLength="7" x="436" y="320.0166">7</text><text fill="#000000" font-family="sans-serif" font-size="13" lengthAdjust="spacing" textLength="78" x="447" y="320.0166">save Authorl1</text><line style="stroke:#181818;stroke-width:1.0;" x1="547" x2="594" y1="351.5703" y2="351.5703"/><line style="stroke:#181818;stroke-width:1.0;" x1="594" x2="594" y1="351.5703" y2="364.5703"/><line style="stroke:#181818;stroke-width:1.0;" x1="553" x2="594" y1="364.5703" y2="364.5703"/><polygon fill="#181818" points="563,360.5703,553,364.5703,563,368.5703,559,364.5703" style="stroke:#181818;stroke-width:1.0;"/><text fill="#000000" font-family="sans-serif" font-size="13" font-weight="bold" lengthAdjust="spacing" textLength="7" x="559" y="346.3076">8</text><text fill="#000000" font-family="sans-serif" font-size="13" lengthAdjust="spacing" textLength="85" x="570" y="346.3076">saved Authorl1</text><line style="stroke:#181818;stroke-width:1.0;stroke-dasharray:2.0,2.0;" x1="552" x2="594" y1="405.8613" y2="405.8613"/><line style="stroke:#181818;stroke-width:1.0;stroke-dasharray:2.0,2.0;" x1="594" x2="594" y1="405.8613" y2="418.8613"/><line style="stroke:#181818;stroke-width:1.0;stroke-dasharray:2.0,2.0;" x1="547" x2="594" y1="418.8613" y2="418.8613"/><polygon fill="#181818" points="557,414.8613,547,418.8613,557,422.8613,553,418.8613" style="stroke:#181818;stroke-width:1.0;"/><text fill="#000000" font-family="sans-serif" font-size="13" font-weight="bold" lengthAdjust="spacing" textLength="7" x="559" y="400.5986">9</text><text fill="#000000" font-family="sans-serif" font-size="13" lengthAdjust="spacing" textLength="85" x="570" y="400.5986">saved Authorl1</text><polygon fill="#181818" points="440,441.1523,430,445.1523,440,449.1523,436,445.1523" style="stroke:#181818;stroke-width:1.0;"/><line style="stroke:#181818;stroke-width:1.0;stroke-dasharray:2.0,2.0;" x1="434" x2="541" y1="445.1523" y2="445.1523"/><text fill="#000000" font-family="sans-serif" font-size="13" font-weight="bold" lengthAdjust="spacing" textLength="14" x="446" y="439.8896">10</text><text fill="#000000" font-family="sans-serif" font-size="13" lengthAdjust="spacing" textLength="44" x="464" y="439.8896">200 OK</text><polygon fill="#181818" points="185,472.4434,175,476.4434,185,480.4434,181,476.4434" style="stroke:#181818;stroke-width:1.0;"/><line style="stroke:#181818;stroke-width:1.0;stroke-dasharray:2.0,2.0;" x1="179" x2="423" y1="476.4434" y2="476.4434"/><text fill="#000000" font-family="sans-serif" font-size="13" font-weight="bold" lengthAdjust="spacing" textLength="14" x="191" y="471.1807">11</text><text fill="#000000" font-family="sans-serif" font-size="13" lengthAdjust="spacing" textLength="44" x="209" y="471.1807">200 OK</text><polygon fill="#181818" points="11,503.7344,1,507.7344,11,511.7344,7,507.7344" style="stroke:#181818;stroke-width:1.0;"/><line style="stroke:#181818;stroke-width:1.0;stroke-dasharray:2.0,2.0;" x1="5" x2="168" y1="507.7344" y2="507.7344"/><text fill="#000000" font-family="sans-serif" font-size="13" font-weight="bold" lengthAdjust="spacing" textLength="14" x="17" y="502.4717">12</text><text fill="#000000" font-family="sans-serif" font-size="13" lengthAdjust="spacing" textLength="21" x="35" y="502.4717">200</text><!--SRC=[bT2nJiCm40RWtKznwa8PWfiqKuIGg402CS320no9rLXoR6DVoifhy7ey2TSaJL7I3htDvq_d_tnL4_bOIEaDMceRSrEwHaRrsIfRggJIk0tO284jEIn9xv0KEDkTRTjyg204QJ8Adk6B9m0vQ7srLsY1LUt2x_TF16wX41u3wLBxlLnWMjntOFEu08pm7bKmwHdpi3cQR6Ao4tFMPyp_ERdWWkHkU1aAU2BluGsfh9SIlPRz0jVC1dB06UE8EmNzL8uzjAUWceiBI3edNKtIh0_9NIHOIcr91OjcZD-ZaUUdm-SpKCt51OHJPQiLlBwCxuzhZJVy_xT9SboMszpx0m00]--></g></svg>